<svg version="1.1" id="Capa_1" xmlns="http://www.w3.org/2000/svg" xmlns:xlink="http://www.w3.org/1999/xlink" x="0px" y="0px"
	 viewBox="0 0 294.958 294.958" style="enable-background:new 0 0 294.958 294.958;" xml:space="preserve">
<path style="fill:none;stroke:#000000;stroke-width:15;stroke-linecap:round;stroke-linejoin:round;stroke-miterlimit:10;" d="
	M34.525,89.338"/>
<path d="M237.292,149.269v-10.135h42.333c4.143,0,6.667-3.857,6.667-8v-33c0-4.143-2.524-7-6.667-7h-66
	c-4.143,0-8.333,2.857-8.333,7v28.845l-24.436-53.845h6.218c7.485,0,14.455-2.768,20.382-7.34
	c8.298-6.401,12.835-16.73,12.835-27.211v-3.449c0-4.143-3.357-7.5-7.5-7.5s-7.5,3.357-7.5,7.5v3.449
	c0,5.863-2.355,11.753-6.998,15.334c-3.316,2.558-7.033,4.217-11.22,4.217h-17.977c-2.562,0-4.945,1.058-6.323,3.217
	c-1.377,2.159-1.558,4.998-0.478,7.32l16.896,36.463H84.677l-6.607-9.069l21.74-6.157c3.615-1.003,5.933-4.545,5.427-8.262
	s-3.681-6.512-7.432-6.512H45.318c-6.56,0-11.697,4.562-11.697,10.436c0,9.094,8.683,16.198,19.768,16.198
	c1.307,0,2.61-0.124,3.896-0.331l15.662,20.902l-6.843,27.117c-1.69-0.202-3.399-0.345-5.13-0.4
	c-16.885-0.53-32.672,5.89-44.343,17.939c-11.22,11.584-17.115,26.855-16.6,43.003c0.99,31.023,26.066,56.1,57.09,57.091
	c0.646,0.021,1.285,0.031,1.926,0.031c16.129,0,31.192-6.383,42.417-17.971c10.106-10.433,15.875-23.862,16.548-38.225l10.874-0.861
	c4.168,6.081,11.163,10.079,19.075,10.079c12.745,0,23.114-10.369,23.114-23.114c0-7.898-3.984-14.88-10.046-19.051l28.595-50.906
	l14.646,31.499c-16.366,10.509-27.24,28.857-27.24,49.708c0,32.56,26.488,59.048,59.048,59.048c32.559,0,58.88-26.488,58.88-59.048
	C294.958,176.237,269.292,150.095,237.292,149.269z M173.788,125.134l-27.729,49.114c-2.788,0.228-5.436,1.076-7.858,2.208
	L99.66,125.134H173.788z M84.519,137.781l40.821,54.49c-0.209,0.997-0.349,2.019-0.425,3.059l-8.082,0.64
	c-4.096-19.587-17.926-35.645-36.185-42.849L84.519,137.781z M71.167,199.587c-0.521-0.718-1.1-1.388-1.739-2.001l7.511-29.766
	c12.165,5.428,21.428,16.221,24.781,29.347L71.167,199.587z M90.689,238.711c-8.709,8.991-20.479,13.783-33.09,13.384
	c-23.136-0.738-41.838-19.44-42.576-42.577c-0.385-12.052,4.013-23.448,12.382-32.089c8.374-8.645,19.611-13.406,31.643-13.406
	c0.481,0,0.962,0.008,1.447,0.023c0.637,0.02,1.269,0.06,1.899,0.107l-7.549,29.917c-6.104,1.849-10.563,7.523-10.563,14.223
	c0,8.196,6.668,14.864,14.863,14.864c5.972,0,11.118-3.547,13.48-8.639l30.275-2.398C101.998,222.108,97.773,231.398,90.689,238.711
	z M211.386,138.544c0.707,0.221,1.459,0.59,2.239,0.59h8.667v11.66c-1,0.381-3.065,0.95-4.638,1.463L211.386,138.544z
	 M236.078,252.324c-24.288,0-44.048-19.76-44.048-44.048c0-14.829,7.207-27.96,18.473-35.946l11.789,25.713v4.111
	c-1,1.874-1.176,3.948-1.176,6.139c0,8.196,6.751,14.864,14.947,14.864c8.196,0,14.739-6.668,14.739-14.864
	c0-7.696-5.51-14.043-13.51-14.788v-29.236c24,0.819,42.666,20.239,42.666,44.008C279.958,232.565,260.365,252.324,236.078,252.324z
	"/>
<g>
</g>
<g>
</g>
<g>
</g>
<g>
</g>
<g>
</g>
<g>
</g>
<g>
</g>
<g>
</g>
<g>
</g>
<g>
</g>
<g>
</g>
<g>
</g>
<g>
</g>
<g>
</g>
<g>
</g>
</svg>
